<svg xmlns="http://www.w3.org/2000/svg" xmlns:xlink="http://www.w3.org/1999/xlink" contentStyleType="text/css" data-diagram-type="CLASS" height="112px" preserveAspectRatio="none" style="width:210px;height:112px;background:#FFFFFF;" version="1.1" viewBox="0 0 210 112" width="210px" zoomAndPan="magnify"><defs/><g><!--cluster pastey_pub--><g id="cluster_pastey_pub"><path d="M8.5,6 L191.459,6 A3.75,3.75 0 0 1 193.959,8.5 L200.959,28.2969 L200.5,28.2969 A2.5,2.5 0 0 1 203,30.7969 L203,102.5 A2.5,2.5 0 0 1 200.5,105 L8.5,105 A2.5,2.5 0 0 1 6,102.5 L6,8.5 A2.5,2.5 0 0 1 8.5,6 " fill="transparent" style="stroke:#000000;stroke-width:1.5;"/><line style="stroke:#000000;stroke-width:1.5;" x1="6" x2="200.959" y1="28.2969" y2="28.2969"/><text fill="#000000" font-family="sans-serif" font-size="14" font-weight="bold" lengthAdjust="spacing" textLength="181.959" x="10" y="20.9951">pastey public interface</text></g><!--class paste_macro--><g id="elem_paste_macro"><rect codeLine="3" fill="#F1F1F1" height="48" id="paste_macro" rx="2.5" ry="2.5" style="stroke:#181818;stroke-width:0.5;" width="134.3408" x="37" y="41"/><ellipse cx="52" cy="57" fill="#B4A7E5" rx="11" ry="11" style="stroke:#181818;stroke-width:1;"/><path d="M47.9219,52.7656 L47.9219,50.6094 L55.3125,50.6094 L55.3125,52.7656 L52.8438,52.7656 L52.8438,60.8438 L55.3125,60.8438 L55.3125,63 L47.9219,63 L47.9219,60.8438 L50.3906,60.8438 L50.3906,52.7656 L47.9219,52.7656 Z " fill="#000000"/><text fill="#000000" font-family="sans-serif" font-size="14" font-style="italic" lengthAdjust="spacing" textLength="102.3408" x="66" y="61.8467">paste!(tokens)</text><line style="stroke:#181818;stroke-width:0.5;" x1="38" x2="170.3408" y1="73" y2="73"/><line style="stroke:#181818;stroke-width:0.5;" x1="38" x2="170.3408" y1="81" y2="81"/></g><!--SRC=[AqXCpavCJrLGAaWiBacjL2WeJSh9J5R8p2j9BKfBJ4vLKaWiLe38nGFb5Agv5800BWsHYizDJ2xA1wc46AEeKPAVdPfNhAd4LSi50000]--></g></svg>