<svg xmlns="http://www.w3.org/2000/svg" xmlns:xlink="http://www.w3.org/1999/xlink" contentStyleType="text/css" data-diagram-type="DESCRIPTION" height="143px" preserveAspectRatio="none" style="width:219px;height:143px;background:#FFFFFF;" version="1.1" viewBox="0 0 219 143" width="219px" zoomAndPan="magnify"><defs/><g><!--cluster pastey--><g id="cluster_pastey"><path d="M8.5,6 L62.6152,6 A3.75,3.75 0 0 1 65.1152,8.5 L72.1152,28.2969 L209.5,28.2969 A2.5,2.5 0 0 1 212,30.7969 L212,133.5 A2.5,2.5 0 0 1 209.5,136 L8.5,136 A2.5,2.5 0 0 1 6,133.5 L6,8.5 A2.5,2.5 0 0 1 8.5,6 " fill="transparent" style="stroke:#000000;stroke-width:1.5;"/><line style="stroke:#000000;stroke-width:1.5;" x1="6" x2="72.1152" y1="28.2969" y2="28.2969"/><text fill="#000000" font-family="sans-serif" font-size="14" font-weight="bold" lengthAdjust="spacing" textLength="53.1152" x="10" y="20.9951">pastey</text><text fill="#000000" font-family="sans-serif" font-size="14" font-style="italic" lengthAdjust="spacing" textLength="61.9199" x="82.04" y="43.292">&#171;SEooC&#187;</text></g><!--entity pastey_component--><g id="elem_pastey_component"><rect fill="#F1F1F1" height="62.5938" rx="2.5" ry="2.5" style="stroke:#181818;stroke-width:0.5;" width="173.3486" x="22.5" y="57"/><rect fill="#F1F1F1" height="10" style="stroke:#181818;stroke-width:0.5;" width="15" x="175.8486" y="62"/><rect fill="#F1F1F1" height="2" style="stroke:#181818;stroke-width:0.5;" width="4" x="173.8486" y="64"/><rect fill="#F1F1F1" height="2" style="stroke:#181818;stroke-width:0.5;" width="4" x="173.8486" y="68"/><text fill="#000000" font-family="sans-serif" font-size="14" font-style="italic" lengthAdjust="spacing" textLength="96.4824" x="55.9331" y="89.9951">&#171;component&#187;</text><text fill="#000000" font-family="sans-serif" font-size="14" lengthAdjust="spacing" textLength="133.3486" x="37.5" y="106.292">pastey_component</text></g><!--SRC=[AqXCpavCJrLGAaWiBacjL598B5Q0C1LiR89Ty_ETxUmKghaKW20vFxSWFoyrhmIcE1ukWgGD8GWq0Cwsi-EgvG80]--></g></svg>